<svg width="453" height="451" viewBox="0 0 453 451" fill="none" xmlns="http://www.w3.org/2000/svg">
<path d="M212.02 82.2696C193.263 67.6746 173.735 54.0984 153.52 41.5996C120.91 21.6996 93.1004 9.93961 70.6204 6.49961C88.5528 -0.0261765 107.897 -1.66968 126.674 1.73734C145.45 5.14435 162.984 13.4795 177.48 25.8896C194.618 40.5988 206.7 60.3209 212.02 82.2696Z" fill="white"/>
<path d="M107.501 214.999C106.661 214.999 105.801 214.999 104.831 214.999C93.5805 200.889 72.9805 174 55.4705 144.85C34.0405 109.2 11.7805 61.4995 27.1105 36.1395C30.3143 32.5339 33.7553 29.1464 37.4105 25.9995C42.8205 22.8395 49.5605 21.2295 57.4105 21.2295C78.6205 21.2295 108.981 32.9095 145.211 54.9995C174.161 72.6495 200.931 93.3595 214.951 104.689C214.951 105.689 214.951 106.629 214.951 107.499C214.951 110.239 214.841 113.05 214.621 115.88C170.961 151.88 134.511 192.789 116.121 214.649C113.261 214.879 110.351 214.999 107.501 214.999Z" fill="white"/>
<path d="M141.38 209.55C162.762 185.27 185.604 162.317 209.78 140.82C204.514 156.808 195.588 171.347 183.714 183.279C171.839 195.211 157.344 204.206 141.38 209.55V209.55Z" fill="white"/>
<path d="M82.6004 212.09C59.0782 206.482 38.1326 193.11 23.1455 174.132C8.15833 155.155 0.00445913 131.681 0.000396161 107.5C-0.0356285 94.2916 2.38555 81.1921 7.1404 68.8696C10.3304 91.5796 22.0204 119.81 42.0204 153.03C54.4728 173.433 68.0192 193.149 82.6004 212.09V212.09Z" fill="white"/>
<path d="M240.99 82.2695C259.748 67.6746 279.276 54.0983 299.49 41.5995C332.1 21.6995 359.91 9.93954 382.39 6.48954C364.457 -0.0349054 345.112 -1.67678 326.336 1.732C307.559 5.14078 290.026 13.4778 275.53 25.8895C258.393 40.5987 246.311 60.3208 240.99 82.2695V82.2695Z" fill="white"/>
<path d="M345.5 214.999C346.34 214.999 347.21 214.999 348.17 214.999C359.43 200.889 380.02 174 397.54 144.85C418.97 109.24 441.24 61.5295 425.89 36.1795C422.694 32.5578 419.256 29.1567 415.6 25.9995C410.19 22.8395 403.45 21.2295 395.6 21.2295C374.4 21.2295 344.04 32.9095 307.81 54.9995C278.86 72.6495 252.08 93.3595 238.07 104.689C238.07 105.689 238.07 106.629 238.07 107.499C238.07 110.239 238.18 113.05 238.4 115.88C282.07 151.88 318.52 192.789 336.9 214.649C339.78 214.879 342.66 214.999 345.5 214.999Z" fill="white"/>
<path d="M311.621 209.55C290.261 185.267 267.435 162.314 243.271 140.82C248.535 156.801 257.454 171.335 269.319 183.266C281.185 195.197 295.668 204.196 311.621 209.55V209.55Z" fill="white"/>
<path d="M370.41 212.09C393.932 206.483 414.878 193.111 429.864 174.133C444.849 155.156 453 131.681 453 107.5C453.041 94.2912 450.62 81.1908 445.86 68.8696C442.68 91.5796 430.99 119.81 410.99 153.03C398.531 173.429 384.985 193.144 370.41 212.09V212.09Z" fill="white"/>
<path d="M212.02 368.729C193.263 383.324 173.735 396.901 153.52 409.399C120.91 429.299 93.1004 441.059 70.6204 444.509C88.5537 451.034 107.899 452.676 126.675 449.267C145.451 445.858 162.985 437.521 177.48 425.109C194.618 410.4 206.7 390.678 212.02 368.729Z" fill="white"/>
<path d="M107.501 236C106.661 236 105.801 236 104.831 236C93.5805 250.11 72.9805 277 55.4705 306.15C34.0405 341.8 11.7805 389.499 27.1105 414.859C30.3143 418.465 33.7553 421.853 37.4105 425C42.8205 428.16 49.5605 429.77 57.4105 429.77C78.6205 429.77 108.981 418.09 145.211 396C174.161 378.35 200.931 357.64 214.951 346.31C214.951 345.31 214.951 344.37 214.951 343.5C214.951 340.76 214.841 337.95 214.621 335.12C170.961 299.12 134.511 258.21 116.121 236.35C113.261 236.12 110.351 236 107.501 236Z" fill="white"/>
<path d="M141.38 241.5C162.763 265.762 185.606 288.698 209.78 310.18C204.507 294.2 195.579 279.671 183.705 267.748C171.83 255.826 157.338 246.838 141.38 241.5V241.5Z" fill="white"/>
<path d="M82.6004 238.91C59.0782 244.518 38.1326 257.89 23.1455 276.867C8.15833 295.844 0.00445913 319.318 0.000396161 343.5C-0.0356285 356.708 2.38555 369.807 7.1404 382.13C10.3304 359.42 22.0204 331.19 42.0204 297.97C54.4728 277.566 68.0192 257.851 82.6004 238.91V238.91Z" fill="white"/>
<path d="M240.99 368.729C259.748 383.324 279.276 396.901 299.49 409.399C332.1 429.299 359.91 441.059 382.39 444.509C364.457 451.034 345.112 452.676 326.336 449.267C307.559 445.858 290.026 437.521 275.53 425.109C258.393 410.4 246.311 390.678 240.99 368.729Z" fill="white"/>
<path d="M345.5 236C346.34 236 347.21 236 348.17 236C359.43 250.11 380.02 277 397.54 306.15C418.97 341.76 441.24 389.47 425.89 414.82C422.693 418.427 419.255 421.815 415.6 424.96C410.19 428.12 403.45 429.73 395.6 429.73C374.4 429.73 344.04 418.05 307.81 395.96C278.86 378.31 252.08 357.6 238.07 346.27C238.07 345.27 238.07 344.33 238.07 343.46C238.07 340.72 238.18 337.909 238.4 335.079C282.07 299.079 318.52 258.17 336.9 236.31C339.78 236.12 342.66 236 345.5 236Z" fill="white"/>
<path d="M311.621 241.5C290.261 265.782 267.435 288.735 243.271 310.23C248.535 294.248 257.454 279.714 269.319 267.783C281.185 255.852 295.668 246.853 311.621 241.5Z" fill="white"/>
<path d="M370.41 238.91C393.932 244.516 414.878 257.888 429.864 276.866C444.849 295.844 453 319.319 453 343.5C453.041 356.708 450.62 369.808 445.86 382.13C442.68 359.42 430.99 331.19 410.99 297.97C398.531 277.571 384.985 257.855 370.41 238.91V238.91Z" fill="white"/>
</svg>
